<svg xmlns="http://www.w3.org/2000/svg" xmlns:xlink="http://www.w3.org/1999/xlink" width="6912" zoomAndPan="magnify" viewBox="0 0 5184 2592.000001" height="3456" preserveAspectRatio="xMidYMid meet" version="1.0"><defs><g/><clipPath id="id1"><path d="M 312 1216 L 5014 1216 L 5014 2048 L 312 2048 Z M 312 1216 " clip-rule="nonzero"/></clipPath><clipPath id="id2"><path d="M 260.101562 1963.753906 L 2594.34375 -727.308594 L 5045.679688 1398.992188 L 2711.4375 4090.054688 Z M 260.101562 1963.753906 " clip-rule="nonzero"/></clipPath><clipPath id="id3"><path d="M 260.101562 1963.753906 L 2594.34375 -727.308594 L 5045.679688 1398.992188 L 2711.4375 4090.054688 Z M 260.101562 1963.753906 " clip-rule="nonzero"/></clipPath></defs><g clip-path="url(#id1)"><g clip-path="url(#id2)"><g clip-path="url(#id3)"><path fill="#b1d4e0" d="M 4994.804688 1457.640625 C 4967.761719 1488.820312 4920.121094 1492.203125 4888.941406 1465.15625 C 4648.570312 1256.65625 4458.183594 1407.429688 4168.3125 1670.601562 C 4017.894531 1807.363281 3861.421875 1948.8125 3683.507812 2013.046875 C 3470.277344 2089.367188 3267.800781 2039.902344 3063.710938 1862.875 C 2663.46875 1515.703125 2482.148438 1591.886719 2252.199219 1687.480469 C 2062.070312 1766.945312 1846.148438 1857.820312 1502.835938 1713.019531 C 1228.058594 1596.871094 967.328125 1611.125 729.117188 1755.1875 C 549.558594 1863.695312 450.632812 2006.378906 450.214844 2008.003906 C 426.574219 2042.132812 379.875 2051.300781 345.746094 2027.65625 C 311.121094 2004.578125 302.523438 1958.375 325.597656 1923.75 C 330.441406 1917.023438 443.253906 1752.609375 651.398438 1627.175781 C 845.253906 1510.203125 1160.234375 1405.914062 1560.550781 1574.328125 C 1845.722656 1694.527344 2015.207031 1623.972656 2193.921875 1548.511719 C 2437.75 1446.078125 2690.386719 1340.363281 3161.492188 1749 C 3374.085938 1933.40625 3532.324219 1906.742188 3632.488281 1871.433594 C 3782.421875 1817.699219 3926.863281 1686.679688 4066.804688 1559.707031 C 4206.257812 1433.296875 4338.179688 1313.277344 4485.050781 1253.90625 C 4662.929688 1181.691406 4827.496094 1214.164062 4986.796875 1352.34375 C 5018.46875 1378.820312 5021.851562 1426.460938 4994.804688 1457.640625 Z M 4994.804688 1457.640625 " fill-opacity="1" fill-rule="nonzero"/></g></g></g><g fill="#145da0" fill-opacity="1"><g transform="translate(670.441273, 1326.016811)"><g><path d="M 48.734375 -670.109375 L 288.359375 -670.109375 C 352.796875 -670.109375 405.320312 -652.914062 445.9375 -618.53125 C 486.550781 -584.144531 506.859375 -535.007812 506.859375 -471.125 C 506.859375 -421.84375 494.539062 -380.550781 469.90625 -347.25 C 445.269531 -313.945312 411.832031 -290.523438 369.59375 -276.984375 L 600.265625 0 L 406.140625 0 L 201.453125 -264.796875 L 201.453125 0 L 48.734375 0 Z M 201.453125 -372.84375 L 219.3125 -372.84375 C 233.394531 -372.84375 245.304688 -373.113281 255.046875 -373.65625 C 264.796875 -374.195312 275.898438 -376.085938 288.359375 -379.328125 C 300.816406 -382.578125 310.832031 -387.179688 318.40625 -393.140625 C 325.988281 -399.097656 332.488281 -407.757812 337.90625 -419.125 C 343.320312 -430.5 346.03125 -444.3125 346.03125 -460.5625 C 346.03125 -476.8125 343.320312 -490.617188 337.90625 -501.984375 C 332.488281 -513.347656 325.988281 -522.007812 318.40625 -527.96875 C 310.832031 -533.925781 300.816406 -538.53125 288.359375 -541.78125 C 275.898438 -545.03125 264.796875 -546.925781 255.046875 -547.46875 C 245.304688 -548.007812 233.394531 -548.28125 219.3125 -548.28125 L 201.453125 -548.28125 Z M 201.453125 -372.84375 "/></g></g></g><g fill="#145da0" fill-opacity="1"><g transform="translate(1211.412575, 1326.016811)"><g><path d="M 470.3125 -188.453125 L 168.140625 -188.453125 C 168.140625 -159.210938 177.613281 -137.550781 196.5625 -123.46875 C 215.519531 -109.382812 236.101562 -102.34375 258.3125 -102.34375 C 281.59375 -102.34375 300 -105.457031 313.53125 -111.6875 C 327.070312 -117.914062 342.507812 -130.234375 359.84375 -148.640625 L 463.8125 -96.65625 C 420.488281 -24.09375 348.46875 12.1875 247.75 12.1875 C 184.925781 12.1875 131.039062 -9.335938 86.09375 -52.390625 C 41.15625 -95.441406 18.6875 -147.289062 18.6875 -207.9375 C 18.6875 -268.59375 41.15625 -320.582031 86.09375 -363.90625 C 131.039062 -407.226562 184.925781 -428.890625 247.75 -428.890625 C 313.8125 -428.890625 367.554688 -409.800781 408.984375 -371.625 C 450.410156 -333.445312 471.125 -278.882812 471.125 -207.9375 C 471.125 -198.195312 470.851562 -191.703125 470.3125 -188.453125 Z M 172.203125 -268.046875 L 330.59375 -268.046875 C 327.34375 -289.710938 318.8125 -306.363281 305 -318 C 291.195312 -329.644531 273.46875 -335.46875 251.8125 -335.46875 C 227.976562 -335.46875 209.019531 -329.238281 194.9375 -316.78125 C 180.863281 -304.332031 173.285156 -288.085938 172.203125 -268.046875 Z M 172.203125 -268.046875 "/></g></g></g><g fill="#145da0" fill-opacity="1"><g transform="translate(1660.596976, 1326.016811)"><g><path d="M 30.046875 102.34375 L 147.828125 44.671875 C 169.492188 80.410156 207.132812 98.28125 260.75 98.28125 C 285.65625 98.28125 308.800781 90.289062 330.1875 74.3125 C 351.582031 58.34375 362.28125 33.84375 362.28125 0.8125 L 362.28125 -30.046875 C 336.820312 -1.890625 291.332031 12.1875 225.8125 12.1875 C 165.707031 12.1875 116.160156 -9.066406 77.171875 -51.578125 C 38.179688 -94.085938 18.6875 -146.207031 18.6875 -207.9375 C 18.6875 -269.675781 38.179688 -321.9375 77.171875 -364.71875 C 116.160156 -407.5 165.707031 -428.890625 225.8125 -428.890625 C 279.425781 -428.890625 324.101562 -412.367188 359.84375 -379.328125 L 362.28125 -379.328125 L 362.28125 -416.703125 L 506.046875 -416.703125 L 506.046875 11.375 C 506.046875 79.0625 483.570312 131.316406 438.625 168.140625 C 393.6875 204.960938 334.394531 223.375 260.75 223.375 C 141.613281 223.375 64.710938 183.03125 30.046875 102.34375 Z M 199.40625 -278.609375 C 180.726562 -260.203125 171.390625 -236.644531 171.390625 -207.9375 C 171.390625 -179.238281 180.320312 -155.816406 198.1875 -137.671875 C 216.0625 -119.535156 239.617188 -110.46875 268.859375 -110.46875 C 297.023438 -110.46875 320.175781 -119.671875 338.3125 -138.078125 C 356.457031 -156.492188 365.53125 -179.78125 365.53125 -207.9375 C 365.53125 -236.644531 356.1875 -260.203125 337.5 -278.609375 C 318.820312 -297.023438 295.941406 -306.234375 268.859375 -306.234375 C 241.242188 -306.234375 218.09375 -297.023438 199.40625 -278.609375 Z M 199.40625 -278.609375 "/></g></g></g><g fill="#145da0" fill-opacity="1"><g transform="translate(2174.763263, 1326.016811)"><g><path d="M 48.734375 0 L 48.734375 -416.703125 L 192.515625 -416.703125 L 192.515625 -356.59375 L 194.140625 -356.59375 C 195.222656 -358.757812 196.976562 -361.46875 199.40625 -364.71875 C 201.84375 -367.96875 207.125 -373.648438 215.25 -381.765625 C 223.375 -389.890625 232.039062 -397.203125 241.25 -403.703125 C 250.457031 -410.203125 262.367188 -416.023438 276.984375 -421.171875 C 291.609375 -426.316406 306.5 -428.890625 321.65625 -428.890625 C 337.363281 -428.890625 352.796875 -426.722656 367.953125 -422.390625 C 383.117188 -418.054688 394.222656 -413.722656 401.265625 -409.390625 L 412.640625 -402.890625 L 352.53125 -281.046875 C 334.65625 -296.210938 309.742188 -303.796875 277.796875 -303.796875 C 260.472656 -303.796875 245.582031 -300.003906 233.125 -292.421875 C 220.664062 -284.835938 211.863281 -275.628906 206.71875 -264.796875 C 201.582031 -253.972656 197.929688 -244.769531 195.765625 -237.1875 C 193.597656 -229.601562 192.515625 -223.644531 192.515625 -219.3125 L 192.515625 0 Z M 48.734375 0 "/></g></g></g><g fill="#145da0" fill-opacity="1"><g transform="translate(2538.65883, 1326.016811)"><g><path d="M 470.3125 -188.453125 L 168.140625 -188.453125 C 168.140625 -159.210938 177.613281 -137.550781 196.5625 -123.46875 C 215.519531 -109.382812 236.101562 -102.34375 258.3125 -102.34375 C 281.59375 -102.34375 300 -105.457031 313.53125 -111.6875 C 327.070312 -117.914062 342.507812 -130.234375 359.84375 -148.640625 L 463.8125 -96.65625 C 420.488281 -24.09375 348.46875 12.1875 247.75 12.1875 C 184.925781 12.1875 131.039062 -9.335938 86.09375 -52.390625 C 41.15625 -95.441406 18.6875 -147.289062 18.6875 -207.9375 C 18.6875 -268.59375 41.15625 -320.582031 86.09375 -363.90625 C 131.039062 -407.226562 184.925781 -428.890625 247.75 -428.890625 C 313.8125 -428.890625 367.554688 -409.800781 408.984375 -371.625 C 450.410156 -333.445312 471.125 -278.882812 471.125 -207.9375 C 471.125 -198.195312 470.851562 -191.703125 470.3125 -188.453125 Z M 172.203125 -268.046875 L 330.59375 -268.046875 C 327.34375 -289.710938 318.8125 -306.363281 305 -318 C 291.195312 -329.644531 273.46875 -335.46875 251.8125 -335.46875 C 227.976562 -335.46875 209.019531 -329.238281 194.9375 -316.78125 C 180.863281 -304.332031 173.285156 -288.085938 172.203125 -268.046875 Z M 172.203125 -268.046875 "/></g></g></g><g fill="#145da0" fill-opacity="1"><g transform="translate(2987.843232, 1326.016811)"><g><path d="M 229.875 -428.890625 C 253.695312 -428.890625 277.25 -426.179688 300.53125 -420.765625 C 323.820312 -415.347656 341.15625 -409.929688 352.53125 -404.515625 L 369.59375 -396.390625 L 322.46875 -302.171875 C 289.976562 -319.492188 259.113281 -328.15625 229.875 -328.15625 C 213.625 -328.15625 202.113281 -326.394531 195.34375 -322.875 C 188.582031 -319.363281 185.203125 -312.734375 185.203125 -302.984375 C 185.203125 -300.816406 185.472656 -298.648438 186.015625 -296.484375 C 186.554688 -294.316406 187.640625 -292.285156 189.265625 -290.390625 C 190.890625 -288.492188 192.378906 -286.867188 193.734375 -285.515625 C 195.085938 -284.160156 197.382812 -282.671875 200.625 -281.046875 C 203.875 -279.421875 206.445312 -278.203125 208.34375 -277.390625 C 210.238281 -276.578125 213.351562 -275.359375 217.6875 -273.734375 C 222.019531 -272.109375 225.269531 -270.890625 227.4375 -270.078125 C 229.601562 -269.265625 233.257812 -268.046875 238.40625 -266.421875 C 243.550781 -264.796875 247.476562 -263.710938 250.1875 -263.171875 C 266.96875 -258.304688 281.585938 -252.894531 294.046875 -246.9375 C 306.503906 -240.976562 319.632812 -232.851562 333.4375 -222.5625 C 347.25 -212.269531 357.945312 -199.269531 365.53125 -183.5625 C 373.113281 -167.863281 376.90625 -150 376.90625 -129.96875 C 376.90625 -35.195312 311.109375 12.1875 179.515625 12.1875 C 149.734375 12.1875 121.4375 7.582031 94.625 -1.625 C 67.820312 -10.832031 48.460938 -20.035156 36.546875 -29.234375 L 18.6875 -43.859375 L 77.171875 -142.15625 C 81.503906 -138.363281 87.1875 -133.894531 94.21875 -128.75 C 101.257812 -123.601562 113.984375 -116.5625 132.390625 -107.625 C 150.804688 -98.6875 166.785156 -94.21875 180.328125 -94.21875 C 210.109375 -94.21875 225 -104.238281 225 -124.28125 C 225 -133.488281 221.207031 -140.660156 213.625 -145.796875 C 206.050781 -150.941406 193.191406 -156.765625 175.046875 -163.265625 C 156.898438 -169.765625 142.6875 -175.722656 132.40625 -181.140625 C 106.40625 -194.679688 85.820312 -209.976562 70.65625 -227.03125 C 55.5 -244.09375 47.921875 -266.703125 47.921875 -294.859375 C 47.921875 -337.097656 64.300781 -369.992188 97.0625 -393.546875 C 129.820312 -417.109375 174.09375 -428.890625 229.875 -428.890625 Z M 229.875 -428.890625 "/></g></g></g><g fill="#145da0" fill-opacity="1"><g transform="translate(3346.865244, 1326.016811)"><g><path d="M 229.875 -428.890625 C 253.695312 -428.890625 277.25 -426.179688 300.53125 -420.765625 C 323.820312 -415.347656 341.15625 -409.929688 352.53125 -404.515625 L 369.59375 -396.390625 L 322.46875 -302.171875 C 289.976562 -319.492188 259.113281 -328.15625 229.875 -328.15625 C 213.625 -328.15625 202.113281 -326.394531 195.34375 -322.875 C 188.582031 -319.363281 185.203125 -312.734375 185.203125 -302.984375 C 185.203125 -300.816406 185.472656 -298.648438 186.015625 -296.484375 C 186.554688 -294.316406 187.640625 -292.285156 189.265625 -290.390625 C 190.890625 -288.492188 192.378906 -286.867188 193.734375 -285.515625 C 195.085938 -284.160156 197.382812 -282.671875 200.625 -281.046875 C 203.875 -279.421875 206.445312 -278.203125 208.34375 -277.390625 C 210.238281 -276.578125 213.351562 -275.359375 217.6875 -273.734375 C 222.019531 -272.109375 225.269531 -270.890625 227.4375 -270.078125 C 229.601562 -269.265625 233.257812 -268.046875 238.40625 -266.421875 C 243.550781 -264.796875 247.476562 -263.710938 250.1875 -263.171875 C 266.96875 -258.304688 281.585938 -252.894531 294.046875 -246.9375 C 306.503906 -240.976562 319.632812 -232.851562 333.4375 -222.5625 C 347.25 -212.269531 357.945312 -199.269531 365.53125 -183.5625 C 373.113281 -167.863281 376.90625 -150 376.90625 -129.96875 C 376.90625 -35.195312 311.109375 12.1875 179.515625 12.1875 C 149.734375 12.1875 121.4375 7.582031 94.625 -1.625 C 67.820312 -10.832031 48.460938 -20.035156 36.546875 -29.234375 L 18.6875 -43.859375 L 77.171875 -142.15625 C 81.503906 -138.363281 87.1875 -133.894531 94.21875 -128.75 C 101.257812 -123.601562 113.984375 -116.5625 132.390625 -107.625 C 150.804688 -98.6875 166.785156 -94.21875 180.328125 -94.21875 C 210.109375 -94.21875 225 -104.238281 225 -124.28125 C 225 -133.488281 221.207031 -140.660156 213.625 -145.796875 C 206.050781 -150.941406 193.191406 -156.765625 175.046875 -163.265625 C 156.898438 -169.765625 142.6875 -175.722656 132.40625 -181.140625 C 106.40625 -194.679688 85.820312 -209.976562 70.65625 -227.03125 C 55.5 -244.09375 47.921875 -266.703125 47.921875 -294.859375 C 47.921875 -337.097656 64.300781 -369.992188 97.0625 -393.546875 C 129.820312 -417.109375 174.09375 -428.890625 229.875 -428.890625 Z M 229.875 -428.890625 "/></g></g></g><g fill="#145da0" fill-opacity="1"><g transform="translate(3705.887257, 1326.016811)"><g><path d="M 62.53125 -648.984375 C 79.320312 -665.773438 99.359375 -674.171875 122.640625 -674.171875 C 145.929688 -674.171875 165.96875 -665.773438 182.75 -648.984375 C 199.539062 -632.203125 207.9375 -612.164062 207.9375 -588.875 C 207.9375 -565.59375 199.539062 -545.5625 182.75 -528.78125 C 165.96875 -512 145.929688 -503.609375 122.640625 -503.609375 C 99.359375 -503.609375 79.320312 -512 62.53125 -528.78125 C 45.75 -545.5625 37.359375 -565.59375 37.359375 -588.875 C 37.359375 -612.164062 45.75 -632.203125 62.53125 -648.984375 Z M 48.734375 -416.703125 L 48.734375 0 L 192.515625 0 L 192.515625 -416.703125 Z M 48.734375 -416.703125 "/></g></g></g><g fill="#145da0" fill-opacity="1"><g transform="translate(3910.577271, 1326.016811)"><g><path d="M 88.125 -49.546875 C 41.832031 -90.703125 18.6875 -143.5 18.6875 -207.9375 C 18.6875 -272.382812 42.78125 -325.320312 90.96875 -366.75 C 139.164062 -408.175781 198.734375 -428.890625 269.671875 -428.890625 C 339.535156 -428.890625 398.425781 -408.039062 446.34375 -366.34375 C 494.257812 -324.644531 518.21875 -271.84375 518.21875 -207.9375 C 518.21875 -144.039062 494.796875 -91.378906 447.953125 -49.953125 C 401.117188 -8.523438 341.691406 12.1875 269.671875 12.1875 C 194.941406 12.1875 134.425781 -8.390625 88.125 -49.546875 Z M 199.40625 -278.609375 C 180.726562 -260.203125 171.390625 -236.644531 171.390625 -207.9375 C 171.390625 -179.238281 180.320312 -155.816406 198.1875 -137.671875 C 216.0625 -119.535156 239.617188 -110.46875 268.859375 -110.46875 C 297.023438 -110.46875 320.175781 -119.671875 338.3125 -138.078125 C 356.457031 -156.492188 365.53125 -179.78125 365.53125 -207.9375 C 365.53125 -236.644531 356.1875 -260.203125 337.5 -278.609375 C 318.820312 -297.023438 295.941406 -306.234375 268.859375 -306.234375 C 241.242188 -306.234375 218.09375 -297.023438 199.40625 -278.609375 Z M 199.40625 -278.609375 "/></g></g></g></svg>